<?xml version="1.0" standalone="no"?>
<!DOCTYPE svg PUBLIC "-//W3C//DTD SVG 20010904//EN"
 "http://www.w3.org/TR/2001/REC-SVG-20010904/DTD/svg10.dtd">
<svg version="1.0" xmlns="http://www.w3.org/2000/svg"
 width="600.000000pt" height="480.000000pt" viewBox="0 0 600.000000 480.000000"
 preserveAspectRatio="xMidYMid meet">

<g transform="translate(0.000000,480.000000) scale(0.100000,-0.100000)"
fill="#000000" stroke="none">
<path d="M2795 3398 c-461 -36 -836 -193 -934 -390 -85 -170 14 -330 284 -459
187 -89 410 -140 715 -161 345 -24 755 39 1000 155 279 132 380 296 288 469
-140 263 -742 435 -1353 386z m-131 -226 c2 -4 -2 -18 -9 -31 -11 -22 -18 -24
-73 -22 -36 1 -74 -4 -96 -13 l-36 -15 2 -85 c1 -48 3 -86 6 -86 3 0 24 16 48
35 23 19 47 35 52 35 16 0 101 -106 94 -116 -12 -17 -99 -84 -109 -84 -5 0
-24 16 -43 35 -19 19 -36 35 -39 35 -4 0 -4 -42 -1 -92 l5 -93 122 0 c120 0
123 1 150 27 26 27 28 34 39 185 7 87 18 172 25 188 19 41 56 73 104 87 55 17
436 16 492 0 113 -33 162 -142 113 -249 -28 -62 -73 -84 -245 -118 -20 -4 -21
-10 -17 -100 l4 -95 -91 0 -91 0 0 255 c0 251 0 255 -21 255 -31 0 -57 -17
-74 -50 -11 -21 -15 -63 -15 -160 0 -88 -4 -141 -14 -163 -17 -41 -62 -86
-102 -103 -55 -23 -239 -36 -406 -28 l-158 7 0 283 0 284 189 0 c105 0 192 -3
195 -8z m1099 -9 c4 -2 7 -130 7 -284 l0 -279 -90 0 -90 0 0 274 c0 151 3 282
6 291 6 14 17 15 83 10 42 -4 79 -9 84 -12z"/>
<path d="M3240 2985 c0 -150 -1 -149 65 -112 75 42 94 128 43 192 -20 25 -73
55 -98 55 -6 0 -10 -49 -10 -135z"/>
<path d="M4160 3196 c0 -2 7 -6 15 -10 8 -3 15 -1 15 4 0 6 -7 10 -15 10 -8 0
-15 -2 -15 -4z"/>
<path d="M873 2170 c-59 -24 -45 -93 22 -106 39 -7 53 -20 37 -36 -7 -7 -20
-7 -43 1 -24 8 -35 8 -47 -1 -12 -10 -11 -15 8 -30 33 -27 95 -24 125 7 30 29
31 35 5 68 -13 16 -33 27 -53 29 -48 5 -44 34 4 30 46 -3 62 23 23 38 -30 12
-51 12 -81 0z"/>
<path d="M1653 2168 c-26 -12 -37 -39 -28 -67 5 -18 39 -37 79 -43 11 -2 21
-8 23 -15 6 -16 -30 -25 -59 -14 -17 7 -29 6 -37 -2 -16 -16 -14 -23 14 -35
64 -29 135 -4 135 48 0 33 -25 54 -77 65 -18 4 -33 10 -33 15 0 13 29 21 54
14 14 -3 27 1 35 10 11 13 9 17 -14 26 -33 12 -63 12 -92 -2z"/>
<path d="M2115 2171 c-99 -43 -68 -191 39 -191 28 0 76 19 76 30 0 18 -29 30
-51 22 -53 -18 -89 21 -69 74 9 22 15 25 50 23 43 -3 72 13 54 31 -15 15 -75
21 -99 11z"/>
<path d="M2295 2171 c-38 -16 -57 -48 -57 -92 1 -74 68 -115 145 -90 62 21 82
110 34 158 -26 27 -88 39 -122 24z m83 -53 c13 -13 16 -57 4 -74 -26 -38 -92
-14 -92 34 0 35 16 52 50 52 14 0 31 -5 38 -12z"/>
<path d="M2708 2165 c-20 -11 -28 -23 -28 -44 0 -35 15 -48 65 -59 21 -4 40
-13 42 -19 6 -17 -31 -25 -62 -13 -32 12 -51 1 -42 -24 7 -18 67 -31 101 -22
32 8 56 32 56 57 0 26 -35 59 -62 59 -31 0 -52 15 -43 30 5 7 19 10 40 6 20
-4 36 -2 40 5 19 30 -64 48 -107 24z"/>
<path d="M3982 2168 c-53 -27 -35 -94 29 -104 43 -7 57 -20 40 -37 -7 -7 -20
-7 -45 0 -28 9 -38 8 -48 -4 -9 -12 -9 -16 3 -24 50 -32 128 -19 143 24 14 38
-1 59 -55 76 -24 8 -46 16 -49 18 -11 10 27 22 53 17 19 -4 29 -1 33 11 4 9 4
18 1 21 -11 12 -83 13 -105 2z"/>
<path d="M660 2080 l0 -90 75 0 c68 0 75 2 75 20 0 17 -7 20 -51 20 -63 0 -64
23 -1 28 33 3 42 7 42 22 0 15 -9 19 -42 22 -63 5 -62 28 1 28 44 0 51 3 51
20 0 18 -7 20 -75 20 l-75 0 0 -90z"/>
<path d="M1020 2080 c0 -89 0 -90 25 -90 20 0 25 5 25 25 0 22 4 25 33 25 48
0 77 24 77 64 0 49 -25 66 -98 66 l-62 0 0 -90z m108 28 c-2 -17 -11 -24 -30
-26 -24 -3 -28 0 -28 22 0 22 4 26 31 26 26 0 30 -3 27 -22z"/>
<path d="M1210 2080 c0 -89 0 -90 25 -90 25 0 25 1 25 90 0 89 0 90 -25 90
-25 0 -25 -1 -25 -90z"/>
<path d="M1359 2078 c29 -68 43 -92 59 -94 11 -2 24 2 30 9 11 14 72 157 72
170 0 5 -12 7 -27 5 -22 -2 -30 -12 -48 -62 l-22 -58 -23 61 c-20 55 -25 61
-51 61 l-28 0 38 -92z"/>
<path d="M1540 2080 c0 -89 0 -90 25 -90 25 0 25 1 25 90 0 89 0 90 -25 90
-25 0 -25 -1 -25 -90z"/>
<path d="M1823 2080 l-41 -90 28 0 c16 0 30 7 34 15 7 20 74 20 97 -1 9 -8 26
-14 37 -12 18 3 17 8 -18 88 -33 77 -40 85 -66 88 -28 3 -32 -1 -71 -88z m81
14 c10 -26 7 -34 -15 -34 -15 0 -19 4 -15 16 3 9 6 20 6 25 0 15 17 10 24 -7z"/>
<path d="M2470 2080 c0 -89 0 -90 25 -90 23 0 25 4 25 45 0 25 3 45 8 45 4 -1
22 -21 40 -45 23 -32 40 -45 57 -45 25 0 25 1 25 90 0 89 0 90 -25 90 -23 0
-25 -4 -25 -45 0 -25 -3 -45 -7 -45 -5 1 -23 21 -41 45 -23 32 -40 45 -57 45
-25 0 -25 -1 -25 -90z"/>
<path d="M2860 2106 c0 -79 5 -93 41 -111 34 -18 60 -19 93 -4 31 14 46 56 46
125 0 51 -1 54 -25 54 -24 0 -25 -3 -25 -53 0 -63 -16 -90 -51 -85 -22 3 -24
7 -27 71 -3 64 -4 67 -27 67 -24 0 -25 -3 -25 -64z"/>
<path d="M3070 2080 l0 -90 70 0 c63 0 70 2 70 20 0 17 -7 20 -45 20 l-45 0 0
70 c0 68 -1 70 -25 70 -25 0 -25 -1 -25 -90z"/>
<path d="M3200 2150 c0 -15 7 -20 25 -20 24 0 25 -2 25 -70 0 -68 1 -70 25
-70 24 0 25 2 25 70 l0 70 30 0 c23 0 30 4 30 20 0 18 -7 20 -80 20 -73 0 -80
-2 -80 -20z"/>
<path d="M3382 2080 l-41 -90 29 0 c15 0 30 7 34 15 3 10 19 15 46 15 27 0 43
-5 46 -15 4 -8 19 -15 35 -15 l28 0 -39 88 c-35 78 -42 87 -68 90 -27 3 -31
-2 -70 -88z m82 14 c10 -26 7 -34 -14 -34 -11 0 -20 4 -20 9 0 17 12 41 20 41
4 0 11 -7 14 -16z"/>
<path d="M3578 2096 c-4 -96 -1 -106 27 -106 21 0 24 5 27 46 l3 46 34 -46
c24 -32 42 -46 58 -46 22 0 23 3 23 90 0 89 0 90 -25 90 -23 0 -25 -4 -25 -47
l0 -48 -41 48 c-22 26 -49 47 -59 47 -16 0 -19 -10 -22 -74z"/>
<path d="M3775 2160 c-10 -16 4 -30 31 -30 23 0 24 -3 24 -68 0 -76 2 -82 31
-75 16 5 19 14 19 74 l0 69 30 0 c23 0 30 4 30 20 0 18 -7 20 -79 20 -44 0
-83 -4 -86 -10z"/>
<path d="M4190 2080 c0 -89 0 -90 24 -90 18 0 25 6 28 23 2 18 11 23 47 28 53
7 75 31 66 74 -8 43 -30 55 -102 55 l-63 0 0 -90z m113 37 c8 -22 -8 -39 -34
-35 -16 2 -25 11 -27 26 -3 18 1 22 26 22 17 0 32 -6 35 -13z"/>
<path d="M4360 2168 c0 -2 15 -42 34 -87 52 -131 77 -133 126 -10 19 45 36 77
38 71 2 -7 17 -12 33 -12 l29 0 0 -70 c0 -68 1 -70 25 -70 24 0 25 2 25 70 0
68 1 70 25 70 18 0 25 5 25 20 0 20 -5 21 -107 18 l-108 -3 -20 -52 c-11 -29
-23 -53 -26 -53 -4 0 -15 24 -25 53 -16 44 -23 53 -47 55 -15 2 -27 2 -27 0z"/>
<path d="M4800 2080 l0 -90 70 0 c63 0 70 2 70 20 0 17 -7 20 -45 20 l-45 0 0
70 c0 68 -1 70 -25 70 -25 0 -25 -1 -25 -90z"/>
<path d="M4930 2150 c0 -15 7 -20 25 -20 24 0 25 -2 25 -70 l0 -70 31 0 c30 0
30 0 29 53 -3 85 -2 87 25 87 18 0 25 5 25 20 0 18 -7 20 -80 20 -73 0 -80 -2
-80 -20z"/>
<path d="M5110 2080 l0 -90 64 0 c82 0 106 18 113 82 5 40 2 50 -20 72 -23 23
-35 26 -92 26 l-65 0 0 -90z m124 28 c7 -11 7 -26 0 -45 -7 -22 -17 -29 -42
-31 l-32 -3 0 51 0 51 31 -3 c18 -2 37 -11 43 -20z"/>
<path d="M4724 2019 c-10 -17 23 -46 37 -32 7 7 9 19 6 27 -7 18 -33 21 -43 5z"/>
<path d="M5313 2014 c-3 -8 -1 -20 5 -26 15 -15 43 8 35 28 -7 19 -32 18 -40
-2z"/>
<path d="M2117 1806 c-9 -36 -20 -72 -23 -80 -5 -12 -2 -15 10 -10 9 4 15 9
12 11 -2 2 4 35 15 71 22 78 21 72 11 72 -4 0 -16 -29 -25 -64z"/>
<path d="M3256 1794 c-17 -69 -17 -101 -1 -75 3 6 4 11 2 11 -3 0 3 28 14 63
21 69 22 77 12 77 -5 0 -16 -34 -27 -76z"/>
<path d="M3533 1838 c-16 -45 -28 -135 -17 -125 5 5 8 10 7 13 -1 4 18 81 31
122 12 35 -9 26 -21 -10z"/>
<path d="M4096 1844 c-5 -14 -4 -15 9 -4 17 14 19 20 6 20 -5 0 -12 -7 -15
-16z"/>
<path d="M1915 1839 c-4 -6 -5 -12 -2 -15 2 -3 7 2 10 11 7 17 1 20 -8 4z"/>
<path d="M1940 1835 c-7 -9 -8 -15 -2 -15 5 0 12 7 16 15 3 8 4 15 2 15 -2 0
-9 -7 -16 -15z"/>
<path d="M2001 1803 c-6 -27 -14 -59 -17 -72 -5 -16 -4 -22 4 -17 6 3 14 20
17 37 6 26 11 30 31 26 13 -2 24 0 24 4 0 5 -9 9 -21 9 -34 0 -21 43 16 51 29
7 29 7 -7 8 -36 1 -37 0 -47 -46z"/>
<path d="M2673 1828 c-14 -18 -37 -107 -30 -115 4 -3 8 0 10 8 3 8 11 38 20
67 16 54 16 60 0 40z"/>
<path d="M2367 1810 c-10 -28 -27 -83 -27 -86 0 -2 4 -4 8 -4 12 0 36 75 29
91 -4 11 -6 11 -10 -1z"/>
<path d="M2426 1809 c-2 -8 -7 -26 -10 -41 -3 -14 -9 -34 -13 -44 -4 -11 -2
-15 4 -11 13 8 38 95 30 104 -4 3 -9 0 -11 -8z"/>
<path d="M2536 1788 c-3 -18 -8 -49 -11 -68 l-5 -35 14 35 c21 54 29 100 18
100 -5 0 -13 -15 -16 -32z"/>
<path d="M2767 1809 c6 -8 13 -25 16 -39 4 -17 5 -15 4 9 -1 21 -8 36 -17 39
-12 4 -13 2 -3 -9z"/>
<path d="M3041 1803 c0 -10 -3 -33 -7 -50 -3 -19 -2 -33 3 -33 5 0 10 6 10 13
0 6 4 29 8 50 5 24 4 37 -3 37 -6 0 -11 -8 -11 -17z"/>
<path d="M3647 1813 c-4 -3 -7 -11 -7 -17 0 -6 5 -5 12 2 6 6 9 14 7 17 -3 3
-9 2 -12 -2z"/>
<path d="M3730 1800 c0 -19 3 -21 12 -12 9 9 9 15 0 24 -9 9 -12 7 -12 -12z"/>
<path d="M3833 1798 c-1 -13 -4 -35 -8 -50 -4 -17 -3 -28 3 -28 5 0 12 15 15
33 3 17 8 40 12 50 5 11 2 17 -6 17 -8 0 -15 -10 -16 -22z"/>
<path d="M3969 1818 c0 -2 -2 -12 -3 -23 -2 -11 -6 -33 -10 -50 l-7 -30 17 30
c20 34 27 75 13 75 -5 0 -9 -1 -10 -2z"/>
<path d="M4029 1818 c0 -2 -2 -10 -4 -19 -1 -9 -6 -31 -10 -48 -5 -22 -3 -31
6 -31 7 0 10 3 6 6 -3 4 0 22 8 41 18 42 19 53 5 53 -5 0 -10 -1 -11 -2z"/>
<path d="M2182 1755 c2 -40 6 -51 14 -42 13 14 7 97 -7 97 -5 0 -8 -25 -7 -55z"/>
<path d="M2240 1795 c0 -8 2 -15 4 -15 2 0 6 7 10 15 3 8 1 15 -4 15 -6 0 -10
-7 -10 -15z"/>
<path d="M2282 1764 c-13 -49 -9 -73 6 -33 16 43 23 79 14 79 -4 0 -13 -21
-20 -46z"/>
<path d="M2830 1765 c0 -25 5 -45 10 -45 6 0 10 20 10 45 0 25 -4 45 -10 45
-5 0 -10 -20 -10 -45z"/>
<path d="M2888 1793 c-6 -24 1 -73 11 -73 4 0 5 17 3 38 -5 53 -8 59 -14 35z"/>
<path d="M2945 1800 c3 -5 8 -10 11 -10 2 0 4 5 4 10 0 6 -5 10 -11 10 -5 0
-7 -4 -4 -10z"/>
<path d="M3104 1765 c-12 -51 -1 -61 15 -14 13 37 14 59 3 59 -4 0 -12 -20
-18 -45z"/>
<path d="M3160 1799 c0 -5 5 -7 10 -4 6 3 10 8 10 11 0 2 -4 4 -10 4 -5 0 -10
-5 -10 -11z"/>
<path d="M3321 1793 c-1 -12 4 -25 10 -28 6 -4 14 -17 19 -29 l9 -21 0 22 c1
12 -4 25 -10 28 -6 4 -14 17 -19 29 l-9 21 0 -22z"/>
<path d="M3593 1798 c-1 -7 -4 -29 -8 -48 -5 -29 -4 -32 5 -17 21 33 30 77 16
77 -7 0 -13 -6 -13 -12z"/>
<path d="M3906 1783 c-3 -16 -9 -39 -12 -53 -12 -44 7 -14 21 34 8 25 10 46 6
46 -5 0 -11 -12 -15 -27z"/>
<path d="M3670 1764 c-11 -27 1 -54 22 -54 6 0 6 6 -1 14 -7 8 -10 26 -7 40 6
34 -2 33 -14 0z"/>
<path d="M2477 1773 c-14 -13 -7 -53 9 -53 13 0 14 3 4 15 -7 8 -10 22 -6 30
6 16 3 19 -7 8z"/>
<path d="M2717 1773 c-10 -9 -9 -51 1 -57 5 -3 8 11 8 29 -1 19 -1 35 -2 35 0
0 -4 -3 -7 -7z"/>
<path d="M2977 1756 c-5 -16 -4 -33 1 -38 14 -14 19 3 12 37 l-6 30 -7 -29z"/>
<path d="M3187 1757 c-9 -33 -2 -48 19 -40 9 3 11 8 6 12 -6 3 -12 17 -14 31
l-4 25 -7 -28z"/>
<path d="M3454 1755 c-8 -20 3 -48 16 -40 7 4 7 12 0 24 -5 10 -6 21 -3 25 3
3 3 6 -1 6 -3 0 -9 -7 -12 -15z"/>
<path d="M3766 1751 c-5 -13 -4 -27 2 -33 14 -14 20 2 12 32 l-6 25 -8 -24z"/>
<path d="M3300 1720 c0 -5 5 -10 11 -10 5 0 7 5 4 10 -3 6 -8 10 -11 10 -2 0
-4 -4 -4 -10z"/>
<path d="M2140 1680 c0 -5 5 -10 11 -10 5 0 7 5 4 10 -3 6 -8 10 -11 10 -2 0
-4 -4 -4 -10z"/>
<path d="M2450 1680 c0 -5 5 -10 11 -10 5 0 7 5 4 10 -3 6 -8 10 -11 10 -2 0
-4 -4 -4 -10z"/>
</g>
</svg>
